name Walk2.mot
datacolumns 19
datarows 22
range 3.93700000 3.95800000
endheader

                time	   L_ground_force_vx	   L_ground_force_vy	   L_ground_force_vz	   L_ground_force_px	   L_ground_force_py	   L_ground_force_pz	   R_ground_force_vx	   R_ground_force_vy	   R_ground_force_vz	   R_ground_force_px	   R_ground_force_py	   R_ground_force_pz	   L_ground_torque_x	   L_ground_torque_y	   L_ground_torque_z	   R_ground_torque_x	   R_ground_torque_y	   R_ground_torque_z	
          3.93700000	        -15.57523298	        702.75693937	        -42.76600985	          0.20529235	          0.00000000	          0.12487554	          0.00000000	          0.00000000	          0.00000000	          0.00000000	          0.00000000	          0.00000000	          0.00000000	          8.82979581	          0.00000000	          0.00000000	          0.00000000	          0.00000000	
          3.93800000	        -15.27891837	        701.86086176	        -42.74491735	          0.20547746	          0.00000000	          0.12486611	          0.00000000	          0.00000000	          0.00000000	          0.00000000	          0.00000000	          0.00000000	          0.00000000	          8.77484489	          0.00000000	          0.00000000	          0.00000000	          0.00000000	
          3.93900000	        -14.98531235	        700.95369292	        -42.71639409	          0.20568824	          0.00000000	          0.12487063	          0.00000000	          0.00000000	          0.00000000	          0.00000000	          0.00000000	          0.00000000	          0.00000000	          8.72386956	          0.00000000	          0.00000000	          0.00000000	          0.00000000	
          3.94000000	        -14.69381098	        700.05527452	        -42.68552261	          0.20591007	          0.00000000	          0.12488742	          0.00000000	          0.00000000	          0.00000000	          0.00000000	          0.00000000	          0.00000000	          0.00000000	          8.67293412	          0.00000000	          0.00000000	          0.00000000	          0.00000000	
          3.94100000	        -14.40156205	        699.18585670	        -42.65795247	          0.20612389	          0.00000000	          0.12490479	          0.00000000	          0.00000000	          0.00000000	          0.00000000	          0.00000000	          0.00000000	          0.00000000	          8.61638495	          0.00000000	          0.00000000	          0.00000000	          0.00000000	
          3.94200000	        -14.10667984	        698.35369467	        -42.64484668	          0.20631228	          0.00000000	          0.12490596	          0.00000000	          0.00000000	          0.00000000	          0.00000000	          0.00000000	          0.00000000	          0.00000000	          8.55564626	          0.00000000	          0.00000000	          0.00000000	          0.00000000	
          3.94300000	        -13.81379169	        697.53423005	        -42.66218932	          0.20647436	          0.00000000	          0.12488527	          0.00000000	          0.00000000	          0.00000000	          0.00000000	          0.00000000	          0.00000000	          0.00000000	          8.50006254	          0.00000000	          0.00000000	          0.00000000	          0.00000000	
          3.94400000	        -13.53627533	        696.70049913	        -42.71249131	          0.20663846	          0.00000000	          0.12486311	          0.00000000	          0.00000000	          0.00000000	          0.00000000	          0.00000000	          0.00000000	          0.00000000	          8.45396466	          0.00000000	          0.00000000	          0.00000000	          0.00000000	
          3.94500000	        -13.28548964	        695.87243119	        -42.78059625	          0.20685437	          0.00000000	          0.12487445	          0.00000000	          0.00000000	          0.00000000	          0.00000000	          0.00000000	          0.00000000	          0.00000000	          8.41068858	          0.00000000	          0.00000000	          0.00000000	          0.00000000	
          3.94600000	        -13.05884355	        695.10613881	        -42.84991200	          0.20716758	          0.00000000	          0.12493764	          0.00000000	          0.00000000	          0.00000000	          0.00000000	          0.00000000	          0.00000000	          0.00000000	          8.36173843	          0.00000000	          0.00000000	          0.00000000	          0.00000000	
          3.94700000	        -12.84220563	        694.42585663	        -42.91242961	          0.20758641	          0.00000000	          0.12503293	          0.00000000	          0.00000000	          0.00000000	          0.00000000	          0.00000000	          0.00000000	          0.00000000	          8.30602986	          0.00000000	          0.00000000	          0.00000000	          0.00000000	
          3.94800000	        -12.62004319	        693.78875489	        -42.96360353	          0.20805643	          0.00000000	          0.12512255	          0.00000000	          0.00000000	          0.00000000	          0.00000000	          0.00000000	          0.00000000	          0.00000000	          8.24919105	          0.00000000	          0.00000000	          0.00000000	          0.00000000	
          3.94900000	        -12.38346273	        693.12503117	        -42.99766828	          0.20847738	          0.00000000	          0.12519171	          0.00000000	          0.00000000	          0.00000000	          0.00000000	          0.00000000	          0.00000000	          0.00000000	          8.19729722	          0.00000000	          0.00000000	          0.00000000	          0.00000000	
          3.95000000	        -12.13315484	        692.39106689	        -43.01283297	          0.20877704	          0.00000000	          0.12524820	          0.00000000	          0.00000000	          0.00000000	          0.00000000	          0.00000000	          0.00000000	          0.00000000	          8.15130435	          0.00000000	          0.00000000	          0.00000000	          0.00000000	
          3.95100000	        -11.87443853	        691.59098321	        -43.01457228	          0.20896747	          0.00000000	          0.12529290	          0.00000000	          0.00000000	          0.00000000	          0.00000000	          0.00000000	          0.00000000	          0.00000000	          8.10547794	          0.00000000	          0.00000000	          0.00000000	          0.00000000	
          3.95200000	        -11.61249041	        690.77761809	        -43.01018399	          0.20911816	          0.00000000	          0.12532474	          0.00000000	          0.00000000	          0.00000000	          0.00000000	          0.00000000	          0.00000000	          0.00000000	          8.05139889	          0.00000000	          0.00000000	          0.00000000	          0.00000000	
          3.95300000	        -11.35592501	        690.02339608	        -43.00235428	          0.20929049	          0.00000000	          0.12536084	          0.00000000	          0.00000000	          0.00000000	          0.00000000	          0.00000000	          0.00000000	          0.00000000	          7.98384240	          0.00000000	          0.00000000	          0.00000000	          0.00000000	
          3.95400000	        -11.11652851	        689.36218230	        -42.98558150	          0.20950148	          0.00000000	          0.12542325	          0.00000000	          0.00000000	          0.00000000	          0.00000000	          0.00000000	          0.00000000	          0.00000000	          7.90447323	          0.00000000	          0.00000000	          0.00000000	          0.00000000	
          3.95500000	        -10.89862245	        688.75809255	        -42.94758508	          0.20973140	          0.00000000	          0.12551662	          0.00000000	          0.00000000	          0.00000000	          0.00000000	          0.00000000	          0.00000000	          0.00000000	          7.82143494	          0.00000000	          0.00000000	          0.00000000	          0.00000000	
          3.95600000	        -10.69291342	        688.14248430	        -42.88111630	          0.20995581	          0.00000000	          0.12562633	          0.00000000	          0.00000000	          0.00000000	          0.00000000	          0.00000000	          0.00000000	          0.00000000	          7.74488866	          0.00000000	          0.00000000	          0.00000000	          0.00000000	
          3.95700000	        -10.48283590	        687.48472037	        -42.79952550	          0.21017538	          0.00000000	          0.12573143	          0.00000000	          0.00000000	          0.00000000	          0.00000000	          0.00000000	          0.00000000	          0.00000000	          7.68371708	          0.00000000	          0.00000000	          0.00000000	          0.00000000	
          3.95800000	        -10.25806917	        686.80409166	        -42.73542412	          0.21041405	          0.00000000	          0.12581746	          0.00000000	          0.00000000	          0.00000000	          0.00000000	          0.00000000	          0.00000000	          0.00000000	          7.64310314	          0.00000000	          0.00000000	          0.00000000	          0.00000000	
